
<svg xmlns="http://www.w3.org/2000/svg" xml:space="preserve" width="296.686mm" height="209.903mm" version="1.1" style="shape-rendering:geometricPrecision; text-rendering:geometricPrecision; image-rendering:optimizeQuality; fill-rule:evenodd; clip-rule:evenodd"
viewBox="0 0 29668.6 20990.28"
 xmlns:xlink="http://www.w3.org/1999/xlink"
 xmlns:xodm="http://www.corel.com/coreldraw/odm/2003">
 <defs>
  <style type="text/css">
   <![CDATA[
    .fil4 {fill:#299952}
    .fil2 {fill:#394A93}
    .fil0 {fill:#EA383B}
    .fil1 {fill:#F9AE4E}
    .fil3 {fill:#394A93;fill-rule:nonzero}
   ]]>
  </style>
 </defs>
 <g id="Layer_x0020_1">
  <metadata id="CorelCorpID_0Corel-Layer"/>
  <path fill="currentColor" d="M17348.15 4674.53l-268.97 -612.81c-80.73,-144.31 -93.39,-128.41 -125.73,-174.54 -72.97,-104.11 -260.04,-502.32 -528.42,-657.22 -208.23,-120.19 -509.47,-160.92 -724.23,-28.53 -279.03,171.97 -166.98,113.45 -292.33,287.83 -183.02,254.56 -52.79,651.76 165.83,868.88l135.79 167.04c457.4,512.57 538.72,1612.87 93.42,2328.19 -122.83,197.27 -67.51,167.91 -232.96,348.93 -120.06,131.32 -333.99,320.07 -499.85,380.97 -90.92,33.42 -118.14,67.43 -192.75,107.81 -399.07,215.96 -1181.98,198.01 -1529.27,30.15 -67.76,-32.76 -132.31,-79.44 -191.46,-107.09 -223.15,-104.3 -349.78,-194.64 -513.75,-394.41 -104.4,-127.21 -257.87,-246.28 -380.92,-496.23 -32.01,-65.05 -53.89,-145.58 -86.81,-215.36l-43.28 -93.09c-13.29,-35.66 -20.77,-74.44 -30.78,-129.73 -55.75,-308.23 -121.26,-416.2 -34.92,-802.08 88.04,-393.33 -13.4,-221.61 165.04,-551.08 27.54,-50.84 22.2,-66.82 43.33,-119.75 98.76,-247.35 269.34,-364.04 371.05,-533.3 166.82,-277.52 218.13,-596.99 -7.12,-884.17 -81.55,-103.96 -245.68,-192.66 -385.75,-220.54 -543.81,-108.24 -842.45,320.92 -1056.19,698.85 -451.56,798.41 -668.67,1482.62 -504.49,2416.51 429.71,1638.55 1247.69,2661.72 3038.2,2937.03 1573.62,241.92 2871.9,-773.49 3531.64,-2117.6 34.45,-70.2 33.77,-152.73 71.4,-234.55 217.61,-473.18 183.95,-1679.53 14.28,-2200.11z"/>
  <path fill="currentColor" d="M9497.14 10319.39l-1.48 998.77c11.68,121.59 31.58,118.11 210.62,117.23l8825.09 -12.2c42.18,-103.91 21.41,-875.81 21.68,-1103.8 0.27,-227.7 51.2,-279.2 -189.54,-278.85 -1035.97,1.54 -8703.64,-17.95 -8788.01,7.68 -114.27,34.73 -77.62,139.16 -78.36,271.17z"/>
  <path fill="currentColor" d="M13388.42 2591.39c1.24,530.08 -11.78,2521.65 15.6,2681.53 55.75,325.45 313.22,553.86 713.46,546.87 141.49,-2.47 238.09,-28.24 324.76,-94.71 450.51,-345.61 344.02,-588.36 344.3,-1369.96l-0.14 -1833.35c0.27,-488.02 -336.35,-804.99 -716.34,-788.79 -202.92,8.66 -414.93,135.52 -517.34,248.17 -159.14,175.07 -164.98,299.38 -164.3,610.24z"/>
  <path fill="currentColor" d="M11117.04 2492.26l-1870.05 0 -1411.86 2449.73 -1411.88 -2449.73 -1935.48 0 2487.13 3814.86 0 2805.04 1598.88 0 0 -2805.04 2543.26 -3814.86zm12839.17 4123.42l0 -4123.42 -1598.88 0 0 3992.51c0,710.61 -336.62,1365.11 -1243.58,1365.11 -897.61,0 -1243.56,-654.5 -1243.56,-1365.11l0 -3992.51 -1589.54 0 0 4123.42c0,1589.52 1084.62,2674.14 2823.76,2674.14 1729.78,0 2851.8,-1084.62 2851.8,-2674.14z"/>
  <path fill="currentColor" d="M5504.2 13121.92c-579.7,-532.97 -1421.22,-813.48 -2169.22,-813.48 -1234.23,0 -2561.96,607.76 -2561.96,2075.74 0,1196.83 850.88,1626.93 1692.39,1898.08 869.57,280.5 1374.46,439.46 1374.46,944.38 0,532.95 -430.1,719.95 -916.3,719.95 -523.61,0 -1112.68,-299.21 -1430.58,-701.25l-1047.21 1065.9c579.71,607.76 1533.41,953.72 2477.79,953.72 1309.01,0 2533.88,-682.55 2533.88,-2206.64 0,-1318.37 -1159.41,-1701.73 -2057.02,-1991.57 -626.46,-196.35 -1019.17,-336.62 -1019.17,-776.06 0,-523.61 514.25,-663.88 925.66,-663.88 411.41,0 906.97,224.42 1178.11,570.37l1019.17 -1075.26zm5813.29 719.95l0 -1365.11 -5338.94 0 0 1365.11 1870.02 0 0 5254.79 1598.88 0 0 -5254.79 1870.04 0z"/>
  <path fill="currentColor" d="M23609.09 18915.52l-1729.77 -2833.09c850.86,-261.81 1374.47,-897.62 1374.47,-1785.88 0,-1514.72 -1262.27,-2000.93 -2533.89,-2000.93l-2524.54 0 0 6619.9 1570.82 0 0 -2627.39 542.31 0 1430.57 2627.39 1870.03 0zm-1935.48 -4590.92c0,673.21 -645.16,804.11 -1159.41,804.11l-757.37 0 0 -1542.77 850.87 0c476.85,0 1065.91,121.55 1065.91,738.66zm7533.69 -663.86l0 -1365.12 -5338.93 0 0 1365.12 1870.03 0 0 5254.78 1598.87 0 0 -5254.78 1870.03 0z"/>
  <path fill="currentColor" d="M10647.34 19060.12l1744.74 0c14.29,-61.35 29.94,-86.37 50.04,-142.04 233.83,-648.28 503.14,-1342.52 724.45,-1980.7 268.03,-772.98 600.2,-1635.14 892.63,-2420.77 21.23,-57.04 84.34,-260.27 125.65,-290.54 5.28,63.43 28.27,100.41 45.68,146.39l492.64 1364.14c207.3,614.8 544.83,1500.02 776.54,2120.7l445.89 1202.82 1776.74 0c-5.29,-63.79 -1269.27,-3087.07 -1365.07,-3308.91l-342.19 -826.29c-174.63,-389.51 -336.88,-841.46 -512.22,-1232.52 -149.31,-333.05 -284.09,-710.16 -432.18,-1040.44 -26.66,-59.44 -72.03,-160.85 -85.49,-218.65l-1568.67 0 -2423.79 5787.69c-43.71,104.06 -323.7,745.99 -345.39,839.12z"/>
 </g>
</svg>
