
<svg xmlns="http://www.w3.org/2000/svg" xml:space="preserve" width="237.46mm" height="39.829mm" version="1.1" style="shape-rendering:geometricPrecision; text-rendering:geometricPrecision; image-rendering:optimizeQuality; fill-rule:evenodd; clip-rule:evenodd"
viewBox="0 0 23746 3982.9"
 xmlns:xlink="http://www.w3.org/1999/xlink"
 xmlns:xodm="http://www.corel.com/coreldraw/odm/2003">
 <defs>
  <style type="text/css">
   <![CDATA[
    .fil4 {fill:#299952}
    .fil2 {fill:#394A93}
    .fil5 {fill:#B3B3B3}
    .fil0 {fill:#EA383B}
    .fil1 {fill:#F9AE4E}
    .fil3 {fill:#394A93;fill-rule:nonzero}
   ]]>
  </style>
 </defs>
 <g id="Layer_x0020_1">
  <metadata id="CorelCorpID_0Corel-Layer"/>
  <g id="_2257942395712">
   <path class="fil0" d="M3652.58 643.5l-58.22 -132.63c-17.47,-31.24 -20.21,-27.8 -27.21,-37.78 -15.8,-22.53 -56.29,-108.72 -114.37,-142.25 -45.07,-26.01 -110.27,-34.83 -156.75,-6.17 -60.4,37.22 -36.14,24.55 -63.27,62.3 -39.61,55.09 -11.43,141.06 35.89,188.05 126.46,155.57 159.63,363.32 49.61,540.06 -26.59,42.7 -14.61,36.35 -50.42,75.53 -312.24,341.51 -842.4,3.5 -758.35,-372.07 31.31,-139.89 54.2,-142.12 125.4,-260.62 36.11,-60.07 47.22,-129.21 -1.54,-191.37 -17.65,-22.5 -53.17,-41.7 -83.49,-47.73 -117.7,-23.43 -182.34,69.46 -228.6,151.25 -97.73,172.81 -144.72,320.9 -109.19,523.03 93.01,354.64 270.05,576.09 657.58,635.68 340.59,52.36 621.59,-167.41 764.38,-458.33 7.46,-15.19 7.31,-33.05 15.46,-50.76 47.09,-102.42 39.81,-363.52 3.09,-476.19z"/>
   <path class="fil1" d="M1953.32 1865.26l-0.32 216.17c2.53,26.32 6.84,25.56 45.59,25.37l1910.08 -2.64c9.13,-22.49 4.63,-189.55 4.69,-238.9 0.06,-49.28 11.08,-60.43 -41.02,-60.35 -224.22,0.33 -1883.8,-3.89 -1902.06,1.66 -24.73,7.51 -16.8,30.12 -16.96,58.69z"/>
   <path class="fil0" d="M2795.54 192.63c0.27,114.73 -2.55,545.78 3.38,580.39 12.07,70.43 67.79,119.87 154.42,118.36 30.62,-0.54 51.53,-6.11 70.29,-20.5 97.51,-74.8 74.46,-127.34 74.52,-296.51l-0.03 -396.81c0.06,-105.62 -72.8,-174.23 -155.05,-170.72 -43.91,1.88 -89.8,29.33 -111.97,53.71 -34.44,37.9 -35.71,64.8 -35.56,132.08z"/>
   <path class="fil2" d="M2303.93 171.18l-404.75 0 -305.58 530.21 -305.58 -530.21 -418.91 0 538.31 825.67 0 607.12 346.05 0 0 -607.12 550.46 -825.67zm2778.88 892.46l0 -892.46 -346.06 0 0 864.13c0,153.8 -72.86,295.46 -269.16,295.46 -194.27,0 -269.15,-141.66 -269.15,-295.46l0 -864.13 -344.04 0 0 892.46c0,344.03 234.76,578.78 611.17,578.78 374.39,0 617.24,-234.75 617.24,-578.78z"/>
   <path class="fil3" d="M1089.1 2471.83c-125.47,-115.35 -307.6,-176.06 -469.5,-176.06 -267.13,0 -554.5,131.54 -554.5,449.26 0,259.04 184.16,352.13 366.29,410.82 188.21,60.71 297.49,95.11 297.49,204.4 0,115.35 -93.09,155.82 -198.32,155.82 -113.33,0 -240.83,-64.76 -309.63,-151.78l-226.66 230.71c125.47,131.54 331.89,206.42 536.29,206.42 283.32,0 548.42,-147.73 548.42,-477.6 0,-285.35 -250.94,-368.32 -445.21,-431.05 -135.59,-42.5 -220.59,-72.86 -220.59,-167.97 0,-113.33 111.3,-143.69 200.35,-143.69 89.04,0 196.3,48.57 254.99,123.45l220.58 -232.73zm1258.22 155.83l0 -295.46 -1155.55 0 0 295.46 404.74 0 0 1137.33 346.06 0 0 -1137.33 404.75 0z"/>
   <path class="fil3" d="M5007.68 3725.78l-374.39 -613.18c184.16,-56.67 297.49,-194.28 297.49,-386.53 0,-327.85 -273.21,-433.08 -548.43,-433.08l-546.41 0 0 1432.79 339.99 0 0 -568.66 117.37 0 309.63 568.66 404.75 0zm-418.91 -993.64c0,145.71 -139.64,174.04 -250.94,174.04l-163.93 0 0 -333.92 184.16 0c103.21,0 230.71,26.31 230.71,159.88zm1630.57 -143.69l0 -295.46 -1155.54 0 0 295.46 404.74 0 0 1137.33 346.06 0 0 -1137.33 404.74 0z"/>
   <path class="fil4" d="M2202.27 3757.08l377.63 0c3.09,-13.28 6.48,-18.69 10.83,-30.74 50.61,-140.31 108.9,-290.57 156.8,-428.7 58.01,-167.3 129.9,-353.9 193.19,-523.94 4.6,-12.35 18.26,-56.34 27.2,-62.89 1.14,13.73 6.12,21.73 9.89,31.69l106.62 295.25c44.87,133.06 117.92,324.66 168.07,459l96.51 260.33 384.56 0c-1.15,-13.81 -274.72,-668.15 -295.46,-716.17l-74.06 -178.84c-37.8,-84.31 -72.91,-182.12 -110.86,-266.76 -32.32,-72.09 -61.49,-153.71 -93.54,-225.19 -5.77,-12.87 -15.59,-34.82 -18.51,-47.33l-339.52 0 -524.6 1252.68c-9.46,22.52 -70.06,161.45 -74.75,181.61z"/>
   <path class="fil3" d="M9009.34 67.81c-410.76,0 -700.69,280.59 -700.69,677.96 0,395.49 289.93,676.08 700.69,676.08 307.06,0 631.24,-218.93 631.24,-653.66 0,-37.37 -1.87,-76.61 -7.47,-117.72l-649.93 0 0 259.72 306.12 0c-37.37,127.06 -131.41,190.9 -295.84,190.9 -166.92,0 -321.07,-117.71 -321.07,-355.32 0,-204.29 130.79,-345.99 315.46,-345.99 111.18,0 190.59,38.31 249.45,95.92l250.07 -246.33c-111.18,-113.36 -270.63,-181.56 -478.03,-181.56zm1126.4 23.98l-355.02 0 0 1307.95 355.02 0 0 -497.33 483.94 0 0 497.33 355.02 0 0 -1307.95 -355.02 0 0 484.25 -483.94 0 0 -484.25zm1850.75 0l-418.55 0 -495.15 1307.95 370.9 0 85.95 -248.82 488.61 0 86.89 248.82 376.5 0 -495.15 -1307.95zm-212.08 355.33l133.6 386.78 -268.13 0 134.53 -386.78zm2046.01 -355.33l-355.02 0 0 735.25 -539.99 -735.25 -345.68 0 0 1307.95 355.02 0 0 -735.25 540 735.25 345.67 0 0 -1307.95zm1010.86 0l-418.55 0 -495.15 1307.95 370.9 0 85.95 -248.82 488.61 0 86.89 248.82 376.5 0 -495.15 -1307.95zm-212.08 355.33l133.6 386.78 -268.13 0 134.53 -386.78zm1969.4 -355.33l-355.01 0 0 774.49c0,159.76 -63.53,217.68 -172.84,217.68 -93.42,0 -162.56,-40.17 -210.2,-80.34l-171.91 274.67c76.61,75.67 222.35,145.74 415.74,145.74 298.03,0 494.22,-171.9 494.22,-527.85l0 -804.39zm826.82 -24.29c-403.91,0 -691.04,287.75 -691.04,678.27 0,390.51 287.13,678.26 691.04,678.26 403.9,0 691.03,-287.75 691.03,-678.26 0,-390.52 -287.13,-678.27 -691.03,-678.27zm0 340.07c190.27,0 321.69,138.27 321.69,338.2 0,199.92 -131.42,338.19 -321.69,338.19 -190.28,0 -321.7,-138.27 -321.7,-338.19 0,-199.93 131.42,-338.2 321.7,-338.2zm831.47 -315.78l0 1307.64 620.66 0c345.98,0 500.13,-144.19 500.13,-376.19 0,-127.99 -85.95,-238.24 -200.24,-281.21 102.46,-51.39 174.4,-148.55 174.4,-274.98 0,-231.39 -156.02,-375.26 -507.61,-375.26l-587.34 0zm601.35 794.11c101.52,0 153.84,38.31 153.84,112.11 0,75.99 -52.32,113.36 -154.46,113.36l-245.71 -0.94 0 -224.53 246.33 0zm-22.11 -504.49c98.1,0 147.61,36.12 147.61,107.75 0,72.87 -49.51,108.99 -147.92,108.99l-223.91 0 0 -216.74 224.22 0zm1761.69 -174.4c-227.34,-119.58 -381.49,-137.33 -551.83,-137.33 -313.29,0 -523.81,167.54 -530.35,417.61 -6.54,231.38 118.65,360.93 419.79,412.31l49.21 8.41c161.93,27.72 242.9,39.86 242.9,108.06 0,64.47 -69.76,90.32 -164.74,90.32 -198.37,0 -323.56,-71.63 -427.57,-134.23l-173.77 289.31c149.48,106.51 362.8,162.56 596.67,162.56 277.78,0 557.44,-122.39 557.44,-452.8 0,-200.24 -137.34,-330.1 -407.65,-382.11l-41.73 -8.41c-133.28,-26.15 -266.26,-33.63 -266.26,-107.43 0,-58.55 72.56,-84.71 167.54,-84.71 161.01,0 290.87,60.73 377.13,109l153.22 -290.56zm1862.26 1192.73l-321.38 -315.78 222.35 -261.59 -233.56 -178.44 -199 233.56 -135.46 -133.59c126.12,-87.82 241.03,-189.66 241.03,-319.52 0,-213.94 -169.1,-356.88 -423.83,-356.88 -256.61,0 -426.02,143.87 -426.02,356.88 0,114.92 46.71,197.13 138.27,296.16 -116.16,89.69 -213.32,202.73 -213.32,350.34 0,206.47 159.75,353.15 442.21,353.15 151.04,0 272.49,-54.19 368.72,-124.25l103.7 99.96 436.29 0zm-873.21 -267.2c-76.92,0 -122.7,-37.37 -122.7,-100.89 0,-35.51 26.16,-71.01 67.58,-107.44l175.33 170.03c-38.31,23.36 -78.79,38.3 -120.21,38.3zm-76.3 -698.81c0,-52.32 37.68,-82.22 99.66,-82.22 61.34,0 100.58,34.57 100.58,74.74 0,37.37 -49.82,75.68 -120.2,120.52 -62.29,-59.79 -80.04,-83.15 -80.04,-113.04zm-12046.21 2141.6c-227.34,-119.58 -381.49,-137.33 -551.83,-137.33 -313.29,0 -523.81,167.54 -530.35,417.61 -6.54,231.38 118.65,360.93 419.79,412.31l49.21 8.41c161.93,27.72 242.9,39.86 242.9,108.06 0,64.47 -69.76,90.32 -164.74,90.32 -198.37,0 -323.56,-71.63 -427.57,-134.23l-173.77 289.31c149.48,106.51 362.8,162.56 596.67,162.56 277.78,0 557.44,-122.39 557.44,-452.8 0,-200.24 -137.34,-330.1 -407.65,-382.11l-41.73 -8.41c-133.28,-26.15 -266.26,-33.63 -266.26,-107.43 0,-58.55 72.56,-84.71 167.54,-84.71 161.01,0 290.87,60.73 377.13,109l153.22 -290.56zm992.48 1192.73l436.29 0 -515.7 -669.86 473.66 -638.09 -431.62 0 -329.79 491.42 -102.77 0 0 -491.42 -355.02 0 0 1307.95 355.02 0 0 -500.76 100.9 0 369.03 500.76zm859.51 -1307.95l-355.02 0 0 1307.95 355.02 0 0 -1307.95zm1171.54 980.96l-629.68 0 0 -980.96 -355.02 0 0 1307.95 984.7 0 0 -326.99zm1096.81 0l-629.68 0 0 -980.96 -355.02 0 0 1307.95 984.7 0 0 -326.99zm1192.73 -865.74c-227.34,-119.58 -381.49,-137.33 -551.83,-137.33 -313.29,0 -523.81,167.54 -530.35,417.61 -6.54,231.38 118.65,360.93 419.79,412.31l49.21 8.41c161.93,27.72 242.9,39.86 242.9,108.06 0,64.47 -69.76,90.32 -164.74,90.32 -198.37,0 -323.56,-71.63 -427.57,-134.23l-173.77 289.31c149.48,106.51 362.8,162.56 596.67,162.56 277.78,0 557.44,-122.39 557.44,-452.8 0,-200.24 -137.34,-330.1 -407.65,-382.11l-41.73 -8.41c-133.28,-26.15 -266.26,-33.63 -266.26,-107.43 0,-58.55 72.56,-84.71 167.54,-84.71 161.01,0 290.87,60.73 377.13,109l153.22 -290.56zm1138.84 781.35c328.23,0 502.94,-180.62 502.94,-444.08 0,-268.75 -174.71,-452.18 -507.61,-452.18l-583.6 0 0 1307.64 355.02 0 0 -411.38 233.25 0zm-8.41 -577.37c88.13,0 152.6,48.58 152.6,133.29 0,85.02 -64.47,132.66 -152.6,132.66l-224.84 0 0 -265.95 224.84 0zm1231.34 -318.89l-583.6 0 0 1307.64 355.02 0 0 -463.7 19.62 0 315.78 463.7 418.54 0 -355.95 -479.58c221.42,-45.78 338.2,-190.9 338.2,-392.7 0,-263.15 -174.71,-435.36 -507.61,-435.36zm-3.74 318.89c88.13,0 152.6,37.37 152.6,116.47 0,79.41 -64.47,115.85 -152.6,115.85l-224.84 0 0 -232.32 224.84 0zm1303.6 -343.49c-403.91,0 -691.04,287.75 -691.04,678.27 0,390.51 287.13,678.26 691.04,678.26 403.9,0 691.03,-287.75 691.03,-678.26 0,-390.52 -287.13,-678.27 -691.03,-678.27zm0 340.07c190.27,0 321.69,138.27 321.69,338.2 0,199.92 -131.42,338.19 -321.69,338.19 -190.28,0 -321.7,-138.27 -321.7,-338.19 0,-199.93 131.42,-338.2 321.7,-338.2zm1547.11 -315.78l-355.01 0 0 774.49c0,159.76 -63.53,217.68 -172.84,217.68 -93.42,0 -162.56,-40.17 -210.2,-80.34l-171.91 274.67c76.61,75.67 222.35,145.74 415.74,145.74 298.03,0 494.22,-171.9 494.22,-527.85l0 -804.39zm1204.25 992.17l-667.05 0 0 -188.71 620.34 0 0 -315.78 -620.34 0 0 -171.9 667.05 0 0 -315.78 -1022.07 0 0 1307.95 1022.07 0 0 -315.78zm789.14 -1016.46c-404.53,0 -690.73,280.27 -690.73,678.27 0,397.99 286.2,678.26 690.73,678.26 258.78,0 458.71,-115.85 582.03,-300.83l-291.48 -203.66c-71.01,108.37 -170.97,164.42 -295.23,164.42 -161.62,0 -316.71,-114.91 -316.71,-338.19 0,-199.93 134.54,-338.2 315.78,-338.2 127.06,0 224.22,56.99 287.75,165.36l314.84 -173.77c-113.98,-209.27 -341,-331.66 -596.98,-331.66zm1770.71 24.29l-1098.68 0 0 326.99 371.84 0 0 980.96 355.01 0 0 -980.96 371.83 0 0 -326.99z"/>
   <polygon class="fil5" points="7232.36,67.5 7159.05,67.5 7159.05,3989.56 7232.36,3989.56 "/>
  </g>
 </g>
</svg>
